<?xml version="1.0" standalone="no"?>
<!DOCTYPE svg PUBLIC "-//W3C//DTD SVG 20010904//EN"
 "http://www.w3.org/TR/2001/REC-SVG-20010904/DTD/svg10.dtd">
<svg version="1.0" xmlns="http://www.w3.org/2000/svg"
 width="1092.000000pt" height="1092.000000pt" viewBox="0 0 1092.000000 1092.000000"
 preserveAspectRatio="xMidYMid meet">
<metadata>
Created by potrace 1.14, written by Peter Selinger 2001-2017
</metadata>
<g transform="translate(0.000000,1092.000000) scale(0.100000,-0.100000)"
fill="#000000" stroke="none">
<path d="M1965 10899 c-76 -37 -113 -94 -119 -179 -2 -30 -5 -55 -6 -55 -1 0
-3 -18 -5 -40 -2 -22 -6 -60 -10 -85 -3 -25 -8 -61 -10 -80 -2 -19 -7 -55 -10
-80 -3 -25 -8 -65 -11 -90 -2 -25 -6 -58 -9 -75 -5 -38 -14 -107 -20 -165 -3
-25 -7 -56 -9 -70 -3 -14 -7 -50 -10 -80 -3 -30 -8 -71 -11 -90 -2 -19 -7 -56
-9 -81 -3 -25 -7 -57 -10 -70 -3 -13 -8 -51 -11 -84 -3 -33 -8 -78 -11 -100
-7 -54 -13 -100 -19 -161 -3 -28 -8 -61 -10 -73 -2 -13 -7 -50 -11 -84 -3 -34
-8 -73 -10 -87 -1 -14 -5 -45 -8 -70 -3 -25 -8 -67 -12 -95 -8 -63 -13 -98
-18 -155 -5 -52 -14 -120 -20 -159 -3 -14 -8 -53 -11 -86 -4 -33 -8 -71 -10
-85 -2 -14 -6 -47 -9 -74 -3 -27 -10 -83 -15 -125 -5 -42 -12 -98 -15 -126 -3
-27 -8 -59 -10 -70 -2 -11 -7 -49 -11 -85 -3 -36 -8 -76 -10 -90 -5 -30 -12
-86 -20 -160 -4 -30 -8 -66 -10 -80 -7 -50 -17 -136 -21 -175 -2 -22 -5 -49
-7 -60 -4 -17 -13 -91 -22 -180 -2 -11 -6 -45 -10 -75 -4 -30 -8 -66 -10 -80
-1 -14 -6 -50 -10 -80 -4 -30 -9 -71 -10 -90 -2 -19 -4 -35 -5 -35 -1 0 -3
-13 -5 -30 -14 -135 -17 -162 -19 -175 -2 -8 -6 -46 -11 -85 -4 -38 -9 -79
-11 -90 -2 -11 -6 -45 -9 -75 -3 -30 -8 -66 -10 -80 -2 -14 -7 -52 -11 -85 -3
-33 -8 -63 -11 -68 -2 -4 -6 -38 -8 -75 -3 -37 -6 -76 -9 -87 -2 -11 -7 -49
-11 -85 -4 -36 -9 -78 -11 -95 -2 -16 -6 -50 -9 -75 -3 -25 -8 -56 -10 -70 -5
-31 -16 -124 -21 -170 -1 -19 -5 -51 -8 -70 -9 -67 -18 -145 -20 -176 -2 -17
-5 -35 -7 -40 -3 -5 -5 -24 -5 -41 1 -18 -1 -33 -4 -33 -3 0 -5 -15 -6 -32 0
-18 -3 -58 -8 -88 -4 -30 -9 -77 -12 -105 -4 -27 -8 -53 -11 -58 -2 -4 -6 -40
-9 -80 -2 -39 -6 -82 -8 -95 -3 -13 -8 -53 -12 -90 -3 -37 -8 -71 -11 -75 -2
-4 -6 -37 -9 -73 -2 -36 -6 -78 -8 -92 -3 -15 -7 -52 -11 -82 -4 -30 -9 -68
-11 -85 -3 -16 -7 -50 -10 -75 -2 -25 -7 -63 -9 -85 -3 -22 -8 -56 -10 -75
-10 -79 -16 -126 -20 -150 -2 -14 -7 -52 -10 -85 -3 -33 -8 -73 -11 -90 -3
-16 -7 -55 -9 -85 -2 -30 -5 -55 -6 -55 0 0 -2 -11 -4 -25 -1 -14 -5 -43 -8
-65 -3 -22 -9 -62 -12 -90 -6 -53 -10 -83 -19 -155 -4 -25 -8 -67 -11 -95 -2
-27 -5 -50 -5 -50 -2 0 -11 -70 -15 -115 -1 -19 -4 -35 -5 -35 -1 0 -3 -18 -5
-40 -3 -22 -7 -56 -9 -75 -2 -19 -7 -62 -11 -95 -9 -76 -13 -109 -15 -115 -2
-3 -2 -8 -1 -12 0 -5 -3 -38 -9 -75 -5 -38 -11 -89 -14 -115 -12 -102 -16
-134 -20 -158 -3 -14 -7 -50 -10 -80 -6 -60 -14 -125 -22 -180 -3 -19 -7 -55
-9 -80 -3 -25 -7 -58 -10 -75 -5 -29 -9 -60 -20 -160 -4 -27 -8 -63 -10 -80
-5 -40 -14 -114 -20 -172 -3 -27 -8 -66 -12 -88 -3 -22 -6 -51 -6 -65 0 -14
-5 -28 -11 -32 -7 -5 -7 -8 2 -8 7 0 10 -4 7 -10 -8 -13 -12 -36 -21 -117 -4
-37 -8 -81 -11 -98 -5 -43 -13 -114 -17 -156 -2 -20 -5 -40 -8 -45 -3 -5 -6
-30 -7 -56 -1 -25 -4 -56 -6 -68 -2 -12 -7 -48 -10 -79 -4 -31 -9 -67 -11 -81
-3 -14 -7 -45 -9 -70 -3 -25 -7 -58 -9 -75 -18 -126 -18 -163 3 -203 14 -28
33 -46 64 -61 43 -21 45 -21 1158 -21 614 0 1119 3 1123 7 3 4 13 8 20 9 22 3
75 46 82 66 3 10 9 18 14 18 4 0 11 10 15 23 4 12 9 27 11 32 8 26 15 74 29
200 1 17 6 55 10 85 4 30 9 69 10 85 2 17 5 48 8 70 4 22 11 85 17 140 6 55
13 111 15 125 2 14 6 48 9 75 4 28 9 66 12 85 3 19 7 55 9 80 2 25 6 61 9 80
3 19 8 56 11 82 3 27 8 69 11 95 3 27 7 64 9 83 6 55 15 131 21 175 3 22 7 56
9 75 2 19 6 53 9 75 5 38 14 114 22 180 2 17 5 48 8 70 3 22 7 65 10 95 4 30
8 64 10 75 3 18 8 61 22 178 2 20 6 56 9 80 3 23 8 62 10 87 3 25 8 63 12 84
3 22 7 65 9 95 2 31 4 56 4 56 3 0 9 43 15 100 4 33 8 71 10 85 2 14 7 50 10
80 3 30 8 62 10 70 4 17 16 133 21 195 1 22 3 40 4 40 1 0 4 14 6 30 1 17 5
48 8 70 3 22 8 67 11 100 3 33 8 71 11 85 5 29 17 145 18 178 1 12 3 22 6 22
3 0 6 15 7 33 2 71 8 137 13 137 3 0 5 10 6 23 0 30 14 156 19 181 2 12 7 48
10 81 3 33 8 74 10 90 2 17 6 55 10 85 3 30 8 66 10 80 2 14 7 52 10 85 3 33
8 69 10 80 2 11 7 47 10 80 3 33 8 74 11 90 3 17 7 53 9 80 2 28 5 50 5 50 1
0 3 11 5 25 2 24 11 104 21 183 2 20 6 55 9 77 2 23 7 46 11 52 5 7 3 8 -6 3
-9 -6 -11 -4 -5 5 8 14 11 30 20 115 3 28 7 66 10 86 3 20 8 56 11 80 2 24 7
64 10 89 3 25 7 59 9 75 9 86 22 180 25 180 1 0 2 23 4 50 5 92 22 121 62 103
21 -10 83 -118 88 -154 1 -8 6 -17 10 -21 11 -11 39 -76 38 -85 -1 -5 2 -8 6
-8 5 0 9 -6 9 -12 0 -7 23 -60 51 -118 95 -199 142 -303 142 -316 0 -8 5 -14
10 -14 6 0 10 -4 10 -9 0 -5 10 -31 22 -58 12 -26 21 -51 20 -55 -1 -5 3 -8 8
-8 6 0 10 -4 10 -10 0 -8 29 -73 151 -338 16 -34 29 -67 29 -72 0 -6 5 -10 10
-10 6 0 10 -7 10 -15 0 -8 14 -43 30 -77 17 -34 30 -67 30 -75 0 -7 4 -13 9
-13 5 0 13 -10 17 -22 3 -13 22 -57 41 -98 20 -41 47 -100 60 -130 70 -152 87
-190 113 -245 80 -168 103 -221 103 -232 0 -7 4 -13 8 -13 7 0 22 -39 20 -52
-1 -5 3 -8 9 -8 6 0 9 -3 8 -7 -2 -8 7 -29 98 -222 30 -62 54 -115 54 -116 0
-2 20 -45 44 -97 24 -51 55 -118 68 -148 73 -157 93 -201 123 -265 18 -38 67
-146 110 -240 42 -93 92 -200 110 -237 18 -36 31 -69 27 -72 -3 -3 1 -6 8 -6
7 0 11 -3 7 -6 -3 -3 5 -26 19 -50 13 -24 24 -46 24 -49 0 -3 15 -38 34 -78
19 -39 45 -97 59 -127 75 -166 108 -237 117 -252 6 -10 10 -23 10 -29 0 -6 7
-17 15 -25 8 -9 15 -24 15 -35 0 -10 5 -19 11 -19 5 0 8 -4 4 -9 -3 -5 0 -15
7 -23 7 -7 14 -20 16 -28 2 -8 18 -46 37 -85 18 -38 43 -92 56 -120 13 -27 23
-53 21 -57 -1 -5 2 -8 8 -8 5 0 10 -7 10 -15 0 -8 9 -29 20 -47 11 -18 20 -39
20 -46 0 -8 9 -27 21 -43 11 -16 18 -29 15 -29 -3 0 8 -26 23 -57 16 -32 39
-80 51 -108 12 -27 38 -84 57 -125 19 -41 45 -97 58 -125 13 -27 26 -60 30
-72 3 -13 11 -23 16 -23 5 0 8 -3 7 -7 -2 -12 1 -18 134 -303 17 -36 41 -90
55 -120 74 -164 117 -247 137 -265 59 -53 -13 -50 1156 -53 1205 -3 1135 -7
1199 63 39 43 53 75 64 143 1 9 6 22 10 29 4 6 3 14 -3 18 -6 4 -8 11 -4 16 8
13 13 46 16 101 2 27 5 48 8 48 3 0 6 12 6 28 0 15 4 54 8 87 4 33 9 80 11
105 3 25 7 59 9 75 3 17 10 71 16 120 6 50 13 101 15 115 2 14 7 54 10 90 4
36 9 73 10 82 2 9 6 43 10 75 3 32 8 72 11 88 3 17 7 46 9 65 10 100 24 215
30 250 3 14 7 50 10 80 7 66 13 121 21 175 10 78 12 91 18 155 4 36 9 79 12
96 6 39 13 96 19 154 2 25 7 63 10 85 4 22 8 54 10 70 3 28 13 112 20 160 1
11 5 49 9 85 4 36 12 94 17 130 5 36 12 90 14 120 6 56 10 88 19 150 3 19 8
57 11 84 3 27 8 53 11 58 3 4 0 8 -7 8 -8 0 -8 4 -2 13 6 6 13 44 17 82 7 69
12 111 21 170 3 17 7 55 10 85 3 30 10 84 15 120 6 36 12 90 15 120 3 30 7 66
9 80 2 14 7 50 10 80 4 30 9 73 13 95 3 22 6 57 6 78 0 20 3 37 7 37 3 0 6 12
6 27 0 16 4 53 8 83 4 30 9 75 12 100 6 60 8 73 17 88 5 7 3 12 -3 12 -6 0 -9
3 -6 8 5 9 18 94 31 212 2 19 6 55 9 80 3 25 9 67 12 94 3 27 8 58 10 70 2 11
6 45 9 76 3 30 7 71 10 90 12 86 15 109 20 165 3 33 8 67 10 75 2 8 6 38 9 65
5 54 14 129 22 185 3 19 7 55 10 79 3 24 7 57 9 75 16 136 19 162 30 251 3 33
9 71 11 85 3 14 7 45 9 70 3 25 7 61 10 80 2 19 7 60 10 90 6 57 12 101 20
160 3 19 7 60 10 90 3 31 7 65 9 76 2 12 7 45 11 75 3 30 8 65 10 79 2 14 7
54 10 90 4 36 9 73 10 82 2 9 6 44 10 77 3 33 8 70 10 82 3 12 7 47 10 78 3
31 7 70 10 86 2 17 7 53 11 80 3 28 8 64 10 80 2 17 6 53 9 80 2 28 8 68 11
90 4 22 7 59 8 82 1 24 3 43 7 43 3 0 5 10 5 23 0 12 4 51 9 87 4 36 9 79 10
95 2 17 4 30 5 30 1 0 4 18 5 40 5 53 15 134 20 164 2 14 7 52 11 85 3 34 8
75 10 91 6 40 14 102 18 145 4 33 8 67 22 180 3 25 8 61 10 80 9 74 15 126 20
158 3 19 7 55 9 80 2 26 4 47 5 47 3 0 9 49 14 113 3 34 7 66 10 71 3 5 8 42
11 82 2 41 5 74 5 74 3 0 8 33 15 91 4 32 9 75 11 94 3 19 6 53 9 75 2 22 6
51 9 65 3 14 8 52 11 85 6 72 12 116 20 170 3 22 8 65 10 95 3 30 7 66 10 80
3 14 8 48 11 75 2 28 7 66 9 85 3 19 7 58 10 85 2 28 7 60 9 73 3 13 8 53 12
90 3 36 8 75 10 87 2 11 7 47 10 81 8 81 -17 133 -79 163 -43 21 -45 21 -1157
21 l-1113 0 -45 -22 c-43 -22 -102 -91 -102 -121 0 -7 -3 -17 -7 -21 -4 -4 -8
-17 -9 -29 -1 -12 -4 -40 -7 -62 -3 -22 -9 -65 -12 -95 -4 -30 -8 -71 -11 -90
-2 -19 -7 -59 -10 -89 -3 -30 -8 -63 -10 -74 -2 -11 -6 -52 -10 -91 -3 -39 -8
-73 -9 -76 -2 -3 -6 -37 -10 -75 -3 -39 -8 -79 -10 -90 -2 -11 -7 -47 -10 -80
-4 -33 -8 -71 -10 -85 -4 -22 -8 -60 -21 -170 -2 -19 -6 -53 -9 -75 -3 -22 -7
-60 -10 -85 -3 -25 -7 -63 -10 -85 -3 -22 -8 -60 -10 -85 -3 -25 -8 -63 -10
-85 -3 -22 -7 -58 -9 -80 -2 -22 -7 -53 -9 -70 -3 -16 -9 -59 -12 -95 -4 -36
-9 -78 -11 -95 -2 -16 -6 -55 -9 -85 -4 -30 -8 -66 -11 -80 -4 -27 -12 -88
-19 -159 -2 -24 -7 -60 -10 -80 -2 -20 -7 -58 -10 -86 -3 -27 -7 -66 -10 -85
-8 -60 -15 -123 -21 -170 -2 -25 -7 -63 -10 -85 -3 -22 -7 -56 -9 -75 -3 -30
-20 -173 -41 -335 -2 -22 -7 -62 -10 -90 -3 -27 -7 -66 -10 -85 -21 -174 -23
-192 -28 -235 -3 -22 -8 -67 -11 -100 -4 -33 -9 -73 -10 -90 -2 -16 -4 -30 -5
-30 -1 0 -3 -11 -5 -25 -10 -99 -17 -164 -20 -178 -5 -31 -19 -167 -18 -179 0
-7 -2 -13 -6 -13 -3 0 -6 -15 -6 -32 -1 -40 -15 -180 -20 -187 -1 -4 -6 -35
-9 -71 -3 -36 -8 -81 -11 -100 -3 -19 -7 -53 -10 -75 -13 -121 -16 -143 -20
-175 -3 -19 -8 -55 -10 -80 -4 -43 -8 -78 -21 -180 -3 -25 -6 -62 -7 -82 -1
-21 -5 -38 -8 -38 -3 0 -6 -15 -6 -32 1 -18 -2 -53 -6 -78 -7 -53 -18 -142
-22 -185 -2 -16 -4 -30 -5 -30 -1 0 -3 -18 -5 -40 -3 -46 -14 -138 -20 -175
-2 -14 -7 -54 -10 -90 -8 -83 -22 -135 -41 -155 -17 -17 -24 -18 -40 -7 -13 8
-79 142 -76 155 1 4 -2 7 -8 7 -5 0 -10 6 -10 14 0 8 -9 31 -20 53 -11 21 -38
79 -61 128 -23 50 -59 127 -80 173 -22 46 -39 85 -39 86 0 2 -27 61 -60 130
-33 70 -60 129 -60 131 0 2 -18 41 -40 86 -22 45 -40 88 -40 96 0 7 -4 13 -10
13 -5 0 -10 4 -10 10 0 5 -14 40 -31 77 -17 38 -43 93 -56 123 -14 30 -46 98
-70 150 -25 52 -63 135 -84 183 -22 49 -46 102 -54 118 -9 16 -16 32 -17 36
-1 5 -19 43 -40 85 -21 43 -38 80 -38 83 0 2 -20 45 -44 94 -24 49 -41 92 -38
95 3 3 -1 6 -8 6 -7 0 -10 3 -7 7 4 3 3 11 -2 17 -5 6 -44 88 -86 181 -43 94
-92 200 -110 237 -18 36 -31 68 -29 71 3 2 -2 10 -11 17 -8 7 -15 21 -15 31 0
11 -5 19 -12 19 -6 0 -8 3 -5 6 3 4 1 16 -5 28 -7 11 -13 23 -13 26 0 3 -6 14
-12 25 -25 48 -173 373 -173 382 0 6 -7 16 -15 23 -9 7 -14 19 -11 27 3 7 2
13 -2 13 -4 0 -13 15 -21 33 -8 17 -36 79 -62 136 -27 57 -49 105 -49 106 0 5
-118 256 -130 277 -6 10 -10 25 -10 33 0 8 -4 15 -10 15 -5 0 -10 9 -10 20 0
11 -5 20 -12 20 -6 0 -9 3 -6 6 4 3 -6 31 -22 62 -15 31 -38 80 -50 107 -12
28 -37 82 -55 120 -18 39 -47 102 -65 140 -39 86 -65 140 -125 270 -26 55 -53
114 -60 130 -7 17 -30 66 -51 110 -20 44 -49 107 -64 140 -15 33 -41 89 -58
125 -16 36 -46 100 -66 143 -20 43 -36 83 -36 88 0 5 -4 9 -8 9 -5 0 -9 6 -9
13 0 6 -23 59 -51 117 -27 58 -62 131 -76 163 -71 156 -117 256 -173 375 -20
42 -64 79 -111 92 -24 6 -402 10 -1112 10 -1052 -1 -1076 -1 -1115 -21z"/>
</g>
</svg>
